<?xml version="1.0" encoding="iso-8859-1"?>
<!-- Generator: Adobe Illustrator 19.0.0, SVG Export Plug-In . SVG Version: 6.00 Build 0)  -->
<svg xmlns="http://www.w3.org/2000/svg" xmlns:xlink="http://www.w3.org/1999/xlink" version="1.1" id="Layer_1" x="0px" y="0px" viewBox="0 0 512 512" style="enable-background:new 0 0 512 512;" xml:space="preserve" width="512" height="512">
<path d="M512,374c0,37.094-12.277,71.428-34.569,96.676C453.902,497.324,420.722,512,384,512  c-100.646,0-144.237-123.607-146.894-131.439C235.908,377.265,198.353,276,128,276c-50.991,0-88,41.215-88,98s37.009,98,88,98  c36.657,0,63.929-26.131,82.033-52.245c5.146,11.001,12.158,24.359,21.211,38.294C207.566,486.57,173.654,512,128,512  c-36.722,0-69.902-14.676-93.431-41.324C12.277,445.428,0,411.094,0,374s12.277-71.428,34.569-96.676  C58.098,250.676,91.278,236,128,236c99.522,0,144.981,126,146.867,131.365l0.099,0.287C275.309,368.666,311.105,472,384,472  c50.991,0,88-41.215,88-98s-37.009-98-88-98c-36.128,0-63.603,26.701-81.95,53.129c-5.156-10.826-12.227-24.169-21.303-38.106  C304.632,262.085,338.718,236,384,236c36.722,0,69.902,14.676,93.431,41.324C499.723,302.572,512,336.906,512,374z M112,85.417  C112,35.923,146.486,0,194,0c31.603,0,50.988,12.514,62,23.705C267.012,12.514,286.397,0,318,0c47.514,0,82,35.923,82,85.417  c0,29.386-18.042,61.022-53.624,94.029c-31.164,28.909-65.31,49.194-71.839,52.966c-2.663,1.539-8.586,4.937-8.586,4.937  l-9.947,5.706l-9.949-5.702c0,0-5.933-3.4-8.599-4.941c-6.527-3.772-40.672-24.056-71.836-52.966  C130.041,146.439,112,114.803,112,85.417z M152,85.417c0,37.006,63.155,87.57,103.998,111.504  C296.842,172.987,360,122.421,360,85.417C360,58.251,343.122,40,318,40c-29.429,0-62,60-62,60s-31.97-59.534-62.467-59.989  C168.672,40.237,152,58.421,152,85.417z"/>















</svg>
